# xmcd
#
# Track frame offsets: 
#        150
#        18643
#        33381
#        47938
#        65975
#        81987
#        92735
#        107469
#        125932
#        137939
#        155446
#        168510
#        179182
#        201552
#        223838
#        239917
#        256172
#        271094
#        286167
#        301615
#        316826
#
# Disc length: 4380 seconds
#
# Revision: 3
# Processed by: cddbd v1.5.2PL0 Copyright (c) Steve Scherf et al.
# Submitted via: ExactAudioCopy v1.0b1
#
DISCID=48111a15
DTITLE=Various Artist - Polskie Trucker Country - CD 1
DYEAR=1900
DGENRE=Country
TTITLE0=Lonstar and The Country Family - Radio
TTITLE1=Colorado - Recepta na zdrowie
TTITLE2=Jan Manson Country Band - Wielki truck
TTITLE3=Konwój - Konwój
TTITLE4=Tomasz Szwed - Ciepłe piwo i zimne kobiety
TTITLE5=Whiskey River - Nie oglądaj się
TTITLE6=Mariusz Kalaga and Johnnie Walker's Band - Co we łbie tkwi
TTITLE7=Tomasz Szwed - Poradnik początkującego kierowcy
TTITLE8=Drink Bar - Deszcz
TTITLE9=Paweł Bączkowski - Ciągle w drodze
TTITLE10=Lonstar and Lonstar Band - Dla kierowców ze stu tysięcy szos
TTITLE11=T. Band - Jeszcz dzisiaj ruszam w drogę
TTITLE12=Tomasz Szwed - Jadę dalej
TTITLE13=Krzysztof Gabłoński and Lonstar - Panie władzo
TTITLE14=Janusz Rewiński - Mój stary Star
TTITLE15=Colorado - Ja lubię mieć pieniądze
TTITLE16=Magda Anioł - Kocham cię tak jak ty mnie
TTITLE17=Krzysztof Gabłoński - Cicho powiedziane
TTITLE18=Paweł Bączkowski - Przytul mój głos
TTITLE19=Texway - Stara płyta
TTITLE20=Zayazd - Wypij do dna
EXTD=
EXTT0=
EXTT1=
EXTT2=
EXTT3=
EXTT4=
EXTT5=
EXTT6=
EXTT7=
EXTT8=
EXTT9=
EXTT10=
EXTT11=
EXTT12=
EXTT13=
EXTT14=
EXTT15=
EXTT16=
EXTT17=
EXTT18=
EXTT19=
EXTT20=
PLAYORDER=
